<?xml version="1.0" encoding="iso-8859-1"?>
<!-- Uploaded to: SVG Repo, www.svgrepo.com, Generator: SVG Repo Mixer Tools -->
<svg fill="#000000" height="50px" width="50px" version="1.1" id="Layer_1" xmlns="http://www.w3.org/2000/svg" xmlns:xlink="http://www.w3.org/1999/xlink" 
	 viewBox="0 0 485 485" xml:space="preserve">
<path d="M485,30V0H0v30h27.5v65H15v295h12.5v65H0v30h485v-30h-27.5v-65H470V95h-12.5V30H485z M347.5,455h-50v-65h50V455z M137.5,30
	h50v65h-50V30z M201.878,172.5l121.244,70l-121.244,70V172.5z M217.5,95V30h50v65H217.5z M187.5,390v65h-50v-65H187.5z M217.5,390
	h50v65h-50V390z M297.5,95V30h50v65H297.5z M57.5,30h50v65h-50V30z M57.5,390h50v65h-50V390z M427.5,455h-50v-65h50V455z M427.5,95
	h-50V30h50V95z"/>
</svg>